<svg width="24" height="24" viewBox="0 0 24 24" fill="none" xmlns="http://www.w3.org/2000/svg">
<path d="M11.94 0C8.0158 0 4.7998 3.2064 4.7998 7.11984C4.7998 8.63616 5.28412 10.0454 6.10372 11.2037L11.0686 19.7868C11.7639 20.6952 12.2261 20.5226 12.8043 19.7388L18.2806 10.4196C18.391 10.2194 18.4779 10.0063 18.5535 9.78864C18.901 8.94179 19.0797 8.03521 19.0796 7.11984C19.0798 3.2064 15.8648 0 11.94 0ZM11.94 3.336C14.0535 3.336 15.734 5.01264 15.734 7.11984C15.734 9.22704 14.0535 10.903 11.94 10.903C9.82684 10.903 8.14565 9.22728 8.14565 7.11984C8.14565 5.01264 9.82684 3.33624 11.94 3.33624V3.336Z" fill="#D9D9D9"/>
<path d="M16.539 11.7378L16.5275 11.768C16.5311 11.7589 16.534 11.7496 16.5376 11.7404L16.539 11.7378ZM8.16134 16.5736C4.7711 17.0526 2.3999 18.1986 2.3999 19.8856C2.3999 22.1579 6.36182 23.9999 11.9999 23.9999C17.638 23.9999 21.5999 22.1579 21.5999 19.8856C21.5999 18.1986 19.2289 17.0526 15.8389 16.5736L15.3693 17.3732C17.9243 17.7277 19.6799 18.4727 19.6799 19.3372C19.6799 20.5492 16.2414 21.5315 11.9999 21.5315C7.75838 21.5315 4.3199 20.5492 4.3199 19.3372C4.31966 18.4756 6.06374 17.7313 8.6267 17.3754C8.4719 17.108 8.31638 16.8412 8.16134 16.5736Z" fill="#D9D9D9"/>
</svg>
