<svg width="24" height="24" viewBox="0 0 24 24" fill="none" xmlns="http://www.w3.org/2000/svg">
<path fill-rule="evenodd" clip-rule="evenodd" d="M5.17249 0.376524C9.71029 -0.12563 14.2898 -0.12563 18.8276 0.376524C21.3066 0.65282 23.3053 2.60123 23.5964 5.08529C24.1345 9.67891 24.1345 14.3195 23.5964 18.9131C23.3053 21.3972 21.3066 23.3456 18.8289 23.6232C14.2906 24.1255 9.71072 24.1255 5.17249 23.6232C2.69342 23.3456 0.69477 21.3972 0.403653 18.9144C-0.134551 14.3204 -0.134551 9.67934 0.403653 5.08529C0.69477 2.60123 2.69342 0.65282 5.17249 0.376524ZM18.5273 4.1795C18.1811 4.1795 17.849 4.31681 17.6042 4.56123C17.3594 4.80564 17.2219 5.13714 17.2219 5.48279C17.2219 5.82844 17.3594 6.15994 17.6042 6.40435C17.849 6.64876 18.1811 6.78607 18.5273 6.78607C18.8735 6.78607 19.2056 6.64876 19.4504 6.40435C19.6952 6.15994 19.8328 5.82844 19.8328 5.48279C19.8328 5.13714 19.6952 4.80564 19.4504 4.56123C19.2056 4.31681 18.8735 4.1795 18.5273 4.1795ZM5.79911 11.9992C5.79911 10.3574 6.45242 8.78275 7.61532 7.62179C8.77821 6.46083 10.3554 5.80861 12 5.80861C13.6446 5.80861 15.2218 6.46083 16.3847 7.62179C17.5476 8.78275 18.201 10.3574 18.201 11.9992C18.201 13.6411 17.5476 15.2157 16.3847 16.3766C15.2218 17.5376 13.6446 18.1898 12 18.1898C10.3554 18.1898 8.77821 17.5376 7.61532 16.3766C6.45242 15.2157 5.79911 13.6411 5.79911 11.9992Z" fill="#D9D9D9"/>
</svg>
